<svg height="512" viewBox="0 0 64 64" width="512" xmlns="http://www.w3.org/2000/svg"><path d="m41 49v12h-32a5.47 5.47 0 0 1 -1-.09 5.991 5.991 0 0 1 -3.24-10.15 5.832 5.832 0 0 1 3.24-1.67 5.47 5.47 0 0 1 1-.09z" fill="#cd2a00"/><path d="m43 37v12h-32a5.47 5.47 0 0 1 -1-.09 5.991 5.991 0 0 1 -3.24-10.15 5.832 5.832 0 0 1 3.24-1.67 5.47 5.47 0 0 1 1-.09z" fill="#007579"/><path d="m26 17h-2v-6a5.006 5.006 0 0 1 5-5h2v2h-2a3 3 0 0 0 -3 3z" fill="#a78966"/><path d="m47 11h14v50h-14z" fill="#ff9478"/><path d="m10 40h33v6h-33z" fill="#d9ccbc"/><path d="m8 52h33v6h-33z" fill="#d9ccbc"/><circle cx="54" cy="21" fill="#ffda44" r="3"/><path d="m47 49h14v4h-14z" fill="#ffda44"/><path d="m37 25a12 12 0 0 1 -24 0c0-6.63 5.37-9 12-9s12 2.37 12 9z" fill="#d80027"/><path d="m18 25h-2c0-1.484 0-6 9-6v2c-7 0-7 2.8-7 4z" fill="#ff7956"/><path d="m25 13h-4a4 4 0 0 1 -4-4h4a4 4 0 0 1 4 4z" fill="#64c37d"/><g fill="#c0ab91"><path d="m10 40h33v1h-33z"/><path d="m8 52h33v1h-33z"/></g></svg>